SplineFontDB: 3.0
FontName: Untitled1
FullName: Untitled1
FamilyName: Untitled1
Weight: Regular
Copyright: Copyright (c) 2017, antoine
Version: 001.000
ItalicAngle: 0
UnderlinePosition: -100
UnderlineWidth: 50
Ascent: 800
Descent: 200
InvalidEm: 0
LayerCount: 2
Layer: 0 0 "Arri+AOgA-re" 1
Layer: 1 0 "Avant" 0
OS2Version: 0
OS2_WeightWidthSlopeOnly: 0
OS2_UseTypoMetrics: 0
CreationTime: 1492082444
ModificationTime: 1492084167
OS2TypoAscent: 0
OS2TypoAOffset: 1
OS2TypoDescent: 0
OS2TypoDOffset: 1
OS2TypoLinegap: 0
OS2WinAscent: 0
OS2WinAOffset: 1
OS2WinDescent: 0
OS2WinDOffset: 1
HheadAscent: 0
HheadAOffset: 1
HheadDescent: 0
HheadDOffset: 1
OS2Vendor: 'PfEd'
DEI: 91125
Encoding: AdobeStandard
UnicodeInterp: none
NameList: AGL For New Fonts
DisplaySize: -48
AntiAlias: 1
FitToEm: 0
WinInfo: 0 27 10
BeginPrivate: 3
BlueValues 16 [-20 0 735 800 ]
BlueShift 2 21
BlueScale 9 0.0166667
EndPrivate
BeginChars: 256 31

StartChar: P
Encoding: 80 80 0
Width: 611
Flags: W
HStem: -200 1<0 0 0 580> 261 135 600 135<203 203 203 290> 800 1
VStem: 0 1 67 135 445 135<489 498 498 507 506.5 507> 580 1<-200 -200 -199 -199 -199 800 480 498 480 484 498 516>
LayerCount: 2
Fore
SplineSet
135 735 m 2xfc
 290 735 l 2
 356 735 422 720 476 684 c 0
 531 649 575 590 580 516 c 0
 580 509 580 503 580 498 c 0
 580 494 580 488 580 480 c 0
 575 407 531 348 476 312 c 0
 422 277 356 261 290 261 c 2
 202 261 l 1
 202 192 202 122 203 52 c 1
 162 24 107 24 67 53 c 1
 66 145 66 237 66 328 c 0
 66 442 66 555 68 668 c 0
 68 705 98 735 135 735 c 2xfc
203 600 m 1
 202 532 202 465 202 397 c 1
 290 397 l 2
 333 397 376 409 403 426 c 0
 430 444 443 462 445 489 c 0
 445 491 445 494 445 498 c 0xfe
 445 503 445 506 445 507 c 0
 443 535 430 553 403 571 c 0
 376 588 333 600 290 600 c 2
 203 600 l 1
0 -200 m 1
 0 -200 l 1
 580 -200 l 1
 581 -200 l 1
 581 -200 l 1
 581 800 l 1
 581 800 l 1xfd
 580 800 l 1
 0 800 l 1
 0 800 l 1
 0 800 l 1
 0 -200 l 1
0 -199 m 1
 0 800 l 1
 580 800 l 1
 580 -199 l 1
 0 -199 l 1
EndSplineSet
EndChar

StartChar: Z
Encoding: 90 90 1
Width: 611
Flags: MW
HStem: -197 1 -11 132 792 1
VStem: 88 1 662 1<-197 -197 -197 -197 -197 792>
LayerCount: 2
Fore
SplineSet
375 802 m 0
 458 802 540 800 622 797 c 1
 654 754 652 695 618 654 c 1
 715 654 l 2
 714 652 712 650 711 648 c 2
 424 347 l 1
 208 121 l 1
 264 119 320 118 375 118 c 0
 451 118 527 120 603 123 c 1
 630 82 629 28 599 -12 c 1
 525 -14 450 -16 375 -16 c 0
 293 -16 211 -14 128 -11 c 1
 97 32 98 91 133 133 c 1
 35 133 l 2
 36 134 38 136 40 138 c 2
 327 439 l 1
 327 439 l 1
 327 439 l 1
 542 665 l 1
 486 667 431 668 375 668 c 0
 299 668 223 666 148 663 c 1
 120 704 121 758 151 798 c 1
 226 800 301 802 375 802 c 0
88 -197 m 1
 88 -197 l 1
 662 -197 l 1
 663 -197 l 1
 663 -197 l 1
 663 792 l 1
 663 792 l 1
 662 792 l 1
 88 792 l 1
 88 792 l 1
 88 792 l 1
 88 -197 l 1
88 -197 m 1
 88 792 l 1
 662 792 l 1
 662 -197 l 1
 88 -197 l 1
EndSplineSet
EndChar

StartChar: D
Encoding: 68 68 2
Width: 611
Flags: W
HStem: -200 1<0 0 0 580> 49 135<117 290 203 290 203 290> 600 135<203 203 203 290> 800 1
VStem: 0 1 66 135<357.5 426.5 357.5 438> 445 135<382 392 392 402 400.5 402> 580 1<-200 -200 -199 -199 -199 800 376 392 376 378.5 392 409>
LayerCount: 2
Fore
SplineSet
135 735 m 2xfc
 290 735 l 2
 376 735 451 692 500 630 c 0
 549 569 576 491 580 409 c 0
 580 403 580 398 580 392 c 0
 580 386 580 381 580 376 c 0
 576 294 549 215 500 154 c 0
 451 93 376 49 290 49 c 2
 135 49 l 2
 99 49 68 79 68 116 c 0
 66 208 66 300 66 392 c 0
 66 484 66 576 68 669 c 0
 68 706 99 735 135 735 c 2xfc
203 600 m 1
 202 531 201 461 201 392 c 0
 201 323 202 254 203 184 c 1
 290 184 l 2
 333 184 366 203 394 238 c 0
 423 274 442 326 445 382 c 0
 445 385 445 389 445 392 c 0xfe
 445 395 445 399 445 402 c 0
 442 458 423 510 394 546 c 0
 366 581 333 600 290 600 c 2
 203 600 l 1
0 -200 m 1
 0 -200 l 1
 580 -200 l 1
 581 -200 l 1
 581 -200 l 1
 581 800 l 1
 581 800 l 1xfd
 580 800 l 1
 0 800 l 1
 0 800 l 1
 0 800 l 1
 0 -200 l 1
0 -199 m 1
 0 800 l 1
 580 800 l 1
 580 -199 l 1
 0 -199 l 1
EndSplineSet
EndChar

StartChar: F
Encoding: 70 70 3
Width: 611
Flags: MW
HStem: -200 1<0 0 0 483> 345 135 603 132 800 1
VStem: 0 1 67 135<53 53> 483 1<-199 800 -199 -199>
LayerCount: 2
Fore
SplineSet
322 741 m 0
 362 741 402 740 442 739 c 1
 472 699 474 644 446 603 c 1
 405 605 364 605 322 605 c 0
 282 605 243 604 203 603 c 1
 202 562 202 522 202 481 c 1
 242 481 282 481 322 481 c 0
 363 481 404 481 444 481 c 1
 473 440 473 386 444 345 c 1
 404 346 363 346 322 346 c 0
 282 346 241 346 201 345 c 1
 201 340 201 334 201 328 c 0
 201 236 201 144 202 52 c 1
 162 24 107 24 67 53 c 1
 66 145 66 236 66 328 c 0
 66 441 66 555 68 669 c 0
 68 703 97 733 131 735 c 0
 195 739 259 741 322 741 c 0
0 -200 m 1
 0 -200 l 1
 484 -200 l 1
 484 -200 l 1
 484 -200 l 1
 484 800 l 1
 484 800 l 1
 484 800 l 1
 0 800 l 1
 0 800 l 1
 0 800 l 1
 0 -200 l 1
0 -199 m 1
 0 800 l 1
 483 800 l 1
 483 -199 l 1
 0 -199 l 1
EndSplineSet
EndChar

StartChar: seven
Encoding: 55 55 4
Width: 611
Flags: MW
HStem: -197 1 792 1
VStem: 66 1<-197 -197 -197 792> 641 1
LayerCount: 2
Fore
SplineSet
354 802 m 0
 436 802 519 800 601 797 c 1
 632 754 631 695 596 654 c 1
 694 654 l 2
 693 653 692 651 691 650 c 0
 601 549 514 445 429 340 c 0
 351 243 274 144 200 44 c 1
 151 46 109 79 95 127 c 1
 169 227 246 326 324 424 c 0
 390 505 458 586 527 665 c 1
 469 667 412 668 354 668 c 0
 278 668 202 666 126 664 c 1
 99 704 100 758 130 798 c 1
 205 800 279 802 354 802 c 0
66 -197 m 1
 67 -197 l 1
 641 -197 l 1
 641 -197 l 1
 641 -197 l 1
 641 792 l 1
 641 792 l 1
 641 792 l 1
 67 792 l 1
 66 792 l 1
 66 792 l 1
 66 -197 l 1
67 -197 m 1
 67 792 l 1
 641 792 l 1
 641 -197 l 1
 67 -197 l 1
EndSplineSet
EndChar

StartChar: U
Encoding: 85 85 5
Width: 611
Flags: HMW
HStem: 42 78<123.5 126 123.5 225>
VStem: 0 28<139 153> 55 55 198 28
LayerCount: 2
Fore
SplineSet
211 740 m 2
 227 740 239 731 247 723 c 0
 256 713 262 701 268 686 c 0
 281 658 291 620 299 577 c 0
 315 489 320 381 299 289 c 0
 289 244 272 202 244 171 c 0
 215 139 174 119 126 120 c 0
 121 120 116 121 111 122 c 1
 96 108 81 93 58 86 c 0
 51 84 43 83 34 85 c 0
 25 87 16 94 11 101 c 0
 1 115 0 130 0 148 c 0
 0 158 1 166 3 175 c 0
 6 184 11 194 21 200 c 0
 31 205 42 206 49 204 c 0
 52 204 53 204 55 203 c 2
 55 453 l 1
 111 453 l 1
 111 330 l 1
 128 363 142 396 142 453 c 0
 142 545 147 609 154 654 c 0
 158 676 163 693 169 707 c 0
 175 721 184 735 203 739 c 0
 205 740 208 740 210 740 c 2
 210 740 211 740 211 740 c 2
215 670 m 1
 213 663 211 655 209 644 c 0
 202 606 198 543 198 453 c 0
 198 375 173 327 151 287 c 0
 135 259 122 234 115 198 c 1
 122 203 130 207 140 210 c 0
 146 212 155 213 164 211 c 0
 173 209 181 203 186 195 c 0
 187 195 187 194 187 194 c 1
 193 198 198 202 202 208 c 0
 221 229 236 262 245 302 c 0
 263 381 259 486 245 567 c 0
 237 607 227 642 218 664 c 0
 217 667 216 668 215 670 c 1
EndSplineSet
EndChar

StartChar: colon
Encoding: 58 58 6
Width: 611
Flags: MW
HStem: -200 1<0 0 0 516> 800 1
VStem: 0 1 190 135 516 1
LayerCount: 2
Fore
SplineSet
190 261 m 1
 326 261 l 1
 326 190 l 1
 326 126 l 1
 326 52 l 1
 326 -9 l 1
 190 -9 l 1
 190 52 l 1
 190 126 l 1
 190 190 l 1
 190 261 l 1
0 -200 m 1
 0 -200 l 1
 516 -200 l 1
 516 -200 l 1
 516 -200 l 1
 516 800 l 1
 516 800 l 1
 516 800 l 1
 0 800 l 1
 0 800 l 1
 0 800 l 1
 0 -200 l 1
0 -199 m 1
 0 800 l 1
 516 800 l 1
 516 -199 l 1
 0 -199 l 1
EndSplineSet
EndChar

StartChar: X
Encoding: 88 88 7
Width: 611
Flags: MW
HStem: -199 21G<90 91 91 559 91 91 91 559 559 560 560 560 560 560> 698 12
LayerCount: 2
Fore
SplineSet
483 698 m 0
 526 698 565 672 581 632 c 1
 398 343 l 1
 581 54 l 1
 564 13 522 -14 477 -12 c 1
 325 228 l 1
 173 -12 l 1
 128 -14 86 13 69 54 c 1
 252 343 l 1
 69 632 l 1
 86 673 128 700 173 698 c 1
 325 458 l 1
 477 698 l 2
 479 698 481 698 483 698 c 0
90 -199 m 1
 91 -199 l 1
 559 -199 l 1
 560 -199 l 1
 560 -199 l 1
 560 709 l 1
 560 709 l 1
 559 709 l 1
 91 709 l 1
 90 709 l 1
 90 709 l 1
 90 -199 l 1
91 -199 m 1
 91 709 l 1
 559 709 l 1
 559 -199 l 1
 91 -199 l 1
EndSplineSet
EndChar

StartChar: Y
Encoding: 89 89 8
Width: 611
Flags: MW
HStem: -199 21G<88 88 88 558 89 558 89 89 558 559 559 559 559 559> 693 18<490.5 493>
VStem: 262 123<31 111 111 241>
LayerCount: 2
Fore
SplineSet
493 693 m 0
 532 694 569 672 588 636 c 1
 557 577 527 517 497 458 c 0
 460 386 422 313 385 241 c 1
 385 111 l 1
 385 31 l 1
 348 4 299 4 262 31 c 1
 262 111 l 1
 262 241 l 1
 224 313 187 386 150 458 c 0
 120 517 89 577 59 636 c 1
 80 676 124 699 169 692 c 1
 199 633 230 574 260 515 c 0
 281 473 302 432 323 391 c 1
 345 432 366 473 387 515 c 0
 417 574 448 633 478 692 c 1
 483 693 488 693 493 693 c 0
88 -199 m 1
 88 -199 l 1
 558 -199 l 1
 559 -199 l 1
 559 -199 l 1
 559 711 l 1
 559 712 l 1
 558 712 l 1
 88 712 l 1
 88 712 l 1
 88 711 l 1
 88 -199 l 1
89 -199 m 1
 89 711 l 1
 558 711 l 1
 558 -199 l 1
 89 -199 l 1
EndSplineSet
EndChar

StartChar: K
Encoding: 75 75 9
Width: 611
Flags: MW
HStem: -199 1 734 1<0 602 0 602 0 602>
VStem: 0 1 61 127 602 1<-199 -199 -199 -199 -199 734>
LayerCount: 2
Fore
SplineSet
452 706 m 1
 497 696 531 658 536 611 c 1
 486 570 436 528 386 485 c 0
 338 444 290 402 243 359 c 1
 294 316 344 274 396 232 c 0
 449 189 502 146 555 105 c 1
 551 58 519 19 473 8 c 1
 421 49 368 91 316 134 c 0
 271 170 227 207 183 244 c 1
 184 174 186 105 188 35 c 1
 150 9 99 10 61 38 c 1
 58 145 56 251 56 358 c 0
 56 465 58 571 61 678 c 1
 99 706 150 707 188 681 c 1
 186 613 184 544 183 476 c 1
 223 511 263 547 304 581 c 0
 353 623 402 665 452 706 c 1
0 -199 m 1
 0 -199 l 1
 602 -199 l 1
 603 -199 l 1
 603 -199 l 1
 603 734 l 1
 603 735 l 1
 602 735 l 1
 0 735 l 1
 0 735 l 1
 0 734 l 1
 0 -199 l 1
0 -199 m 1
 0 734 l 1
 602 734 l 1
 602 -199 l 1
 0 -199 l 1
EndSplineSet
EndChar

StartChar: L
Encoding: 76 76 10
Width: 611
Flags: MW
HStem: -199 1 32 126<283.5 321> 734 1<0 452 0 451 451 451 0 452>
VStem: 0 1 63 126<679 679> 451 1<-199 734 -199 -199>
LayerCount: 2
Fore
SplineSet
126 700 m 0
 148 700 170 693 189 680 c 1
 188 594 188 508 188 423 c 0
 188 336 188 250 189 163 c 1
 227 160 265 158 302 158 c 0
 341 158 380 160 418 163 c 1
 443 124 440 72 410 36 c 1
 374 33 339 32 303 32 c 0
 241 32 180 35 119 42 c 0
 89 46 64 74 63 104 c 0
 62 210 61 316 61 423 c 0
 61 508 62 594 63 679 c 1
 82 693 104 700 126 700 c 0
0 -199 m 1
 0 -199 l 1
 452 -199 l 1
 452 -199 l 1
 452 -199 l 1
 452 734 l 1
 452 735 l 1
 452 735 l 1
 0 735 l 1
 0 735 l 1
 0 734 l 1
 0 -199 l 1
0 -199 m 1
 0 734 l 1
 451 734 l 1
 451 -199 l 1
 0 -199 l 1
EndSplineSet
EndChar

StartChar: period
Encoding: 46 46 11
Width: 611
Flags: MW
HStem: -200 1<0 0 0 516> 800 1
VStem: 0 1 516 1
LayerCount: 2
Fore
SplineSet
258 86 m 0
 282 86 305 79 326 64 c 1
 326 53 l 1
 285 24 231 24 190 53 c 1
 190 64 l 1
 210 79 234 86 258 86 c 0
0 -200 m 1
 0 -200 l 1
 516 -200 l 1
 516 -200 l 1
 516 -200 l 1
 516 800 l 1
 516 800 l 1
 516 800 l 1
 0 800 l 1
 0 800 l 1
 0 800 l 1
 0 -200 l 1
0 -199 m 1
 0 800 l 1
 516 800 l 1
 516 -199 l 1
 0 -199 l 1
EndSplineSet
EndChar

StartChar: T
Encoding: 84 84 12
Width: 611
Flags: MW
HStem: -200 1<68 68 68 647> 601 135<129 129 586 586> 800 1
VStem: 67 1<-199 800 -199 800 -199 800 -199 800> 290 135<53 328 328 602> 647 1<-199 800 -199 -199>
LayerCount: 2
Fore
SplineSet
130 736 m 1
 206 737 282 738 358 738 c 0
 433 738 509 737 585 736 c 1
 614 696 615 642 586 601 c 1
 533 601 479 602 425 602 c 1
 425 328 l 1
 425 53 l 1
 385 24 330 24 290 53 c 1
 290 328 l 1
 290 602 l 1
 236 602 182 601 129 601 c 1
 100 642 101 696 130 736 c 1
67 -200 m 1
 67 -200 l 1
 648 -200 l 1
 648 -200 l 1
 648 -200 l 1
 648 800 l 1
 648 800 l 1
 648 800 l 1
 67 800 l 1
 67 800 l 1
 67 800 l 1
 67 -200 l 1
68 -199 m 1
 68 800 l 1
 647 800 l 1
 647 -199 l 1
 68 -199 l 1
EndSplineSet
EndChar

StartChar: hyphen
Encoding: 45 45 13
Width: 611
Flags: MW
HStem: -200 1<68 68 68 583> 260 135 800 1
VStem: 67 1<-199 800 -199 800 -199 800 -199 800> 583 1<-200 -200 -199 -199 -199 800>
LayerCount: 2
Fore
SplineSet
129 396 m 1
 194 396 260 396 325 396 c 0
 391 396 456 396 522 396 c 1
 550 356 550 301 521 261 c 1
 456 260 391 260 325 260 c 0
 260 260 195 260 130 261 c 1
 101 301 100 356 129 396 c 1
67 -200 m 1
 67 -200 l 1
 583 -200 l 1
 584 -200 l 1
 584 -200 l 1
 584 800 l 1
 584 800 l 1
 583 800 l 1
 67 800 l 1
 67 800 l 1
 67 800 l 1
 67 -200 l 1
68 -199 m 1
 68 800 l 1
 583 800 l 1
 583 -199 l 1
 68 -199 l 1
EndSplineSet
EndChar

StartChar: H
Encoding: 72 72 14
Width: 611
Flags: MW
HStem: -199 1 295 126<186 301 186 301 301 416> 734 1<0 602 0 602 0 602>
VStem: 0 1 62 126 413 126 602 1<-199 -199 -199 -199 -199 734>
LayerCount: 2
Fore
SplineSet
476 700 m 0
 498 700 521 693 540 679 c 1
 542 572 543 465 543 358 c 0
 543 251 542 144 540 37 c 1
 502 10 452 9 413 36 c 1
 415 122 416 208 416 295 c 1
 301 295 l 1
 186 295 l 1
 187 208 187 122 189 36 c 1
 151 9 100 10 62 37 c 1
 61 144 60 251 60 358 c 0
 60 465 61 572 62 679 c 1
 100 706 151 707 189 680 c 1
 187 594 187 508 186 421 c 1
 301 421 l 1
 416 421 l 1
 416 508 415 594 413 680 c 1
 432 693 454 700 476 700 c 0
0 -199 m 1
 0 -199 l 1
 602 -199 l 1
 603 -199 l 1
 603 -199 l 1
 603 734 l 1
 603 735 l 1
 602 735 l 1
 0 735 l 1
 0 735 l 1
 0 734 l 1
 0 -199 l 1
0 -199 m 1
 0 734 l 1
 602 734 l 1
 602 -199 l 1
 0 -199 l 1
EndSplineSet
EndChar

StartChar: R
Encoding: 82 82 15
Width: 583
Flags: HW
HStem: -200 1<0 0 0 580> 600 135<203 203 203 290> 800 1
VStem: 0 1 67 135 445 135<489 498 498 507 506.5 507> 580 1<-200 -200 -199 -199 -199 800 480 498 480 484 498 516>
LayerCount: 2
Fore
SplineSet
135 735 m 2xf8
 290 735 l 2
 356 735 422 720 476 684 c 0
 531 649 575 590 580 516 c 0
 580 509 580 503 580 498 c 0
 580 494 580 488 580 480 c 0
 575 407 531 348 476 312 c 0
 451 296 423 284 395 276 c 1
 419 253 445 230 471 208 c 0
 505 179 541 150 578 122 c 1
 570 73 533 33 483 24 c 1
 449 50 415 77 383 105 c 0
 325 155 269 207 215 261 c 1
 202 261 l 1
 202 192 202 122 203 52 c 1
 162 24 107 24 67 53 c 1
 66 145 66 237 66 328 c 0
 66 442 66 555 68 668 c 0
 68 705 98 735 135 735 c 2xf8
203 600 m 1
 202 532 202 465 202 397 c 1
 290 397 l 2
 333 397 376 409 403 426 c 0
 430 444 443 462 445 489 c 0
 445 491 445 494 445 498 c 0xfc
 445 503 445 506 445 507 c 0
 443 535 430 553 403 571 c 0
 376 588 333 600 290 600 c 2
 203 600 l 1
EndSplineSet
EndChar

StartChar: O
Encoding: 79 79 16
Width: 611
Flags: W
HStem: -200 1<0 0 0 645> 49 135<315 322 315 322 308 322 322 330 315 337> 610 135<321 322 322 323.5> 800 1
VStem: 0 1 0 135<367 396 367 800 367 396 367 800 367 396 367 398 393 396 367 403> 509 135 645 1
LayerCount: 2
Fore
SplineSet
322 745 m 0xf0
 327 745 332 745 337 745 c 0
 504 736 634 599 644 433 c 0
 645 420 645 408 645 398 c 0
 645 388 645 376 645 362 c 0
 638 194 504 57 337 49 c 0
 332 49 327 49 322 49 c 0
 318 49 313 49 308 49 c 0
 140 57 7 194 0 362 c 0
 0 376 0 388 0 398 c 0
 0 408 0 420 1 433 c 0
 11 599 141 736 308 745 c 0
 313 745 318 745 322 745 c 0xf0
322 610 m 0
 320 610 317 610 315 609 c 0
 218 605 142 525 136 425 c 0
 136 417 136 407 135 396 c 0
 135 385 135 375 135 367 c 0
 139 268 217 189 315 184 c 0
 317 184 320 184 322 184 c 0
 325 184 327 184 330 184 c 0
 428 189 505 268 509 367 c 0xf6
 510 375 510 385 509 396 c 0
 509 407 509 417 509 425 c 0
 502 525 426 605 330 609 c 0
 327 610 325 610 322 610 c 0
0 -200 m 1xf9
 0 -200 l 1
 645 -200 l 1
 645 -200 l 1
 645 -200 l 1
 645 800 l 1
 645 800 l 1
 645 800 l 1
 0 800 l 1
 0 800 l 1
 0 800 l 1
 0 -200 l 1xf9
0 -199 m 1
 0 800 l 1
 645 800 l 1
 645 -199 l 1
 0 -199 l 1
EndSplineSet
EndChar

StartChar: A
Encoding: 65 65 17
Width: 611
Flags: MW
HStem: -199 1 168 126 734 1<43 585 43 585 43 585 43 585>
VStem: 43 1 585 1
LayerCount: 2
Fore
SplineSet
298 674 m 2
 330 674 l 2
 354 674 381 656 389 633 c 0
 428 526 465 420 501 312 c 0
 530 227 558 141 585 55 c 1
 558 17 510 0 466 13 c 1
 449 65 433 117 416 168 c 1
 212 168 l 1
 195 117 178 65 162 13 c 1
 117 0 69 17 43 55 c 1
 70 141 98 227 127 312 c 0
 163 420 200 526 239 633 c 0
 247 656 274 674 298 674 c 2
314 467 m 1
 294 410 274 352 254 295 c 1
 373 295 l 1
 354 352 334 410 314 467 c 1
43 -199 m 1
 43 -199 l 1
 585 -199 l 1
 585 -199 l 1
 585 -199 l 1
 585 734 l 1
 585 735 l 1
 585 735 l 1
 43 735 l 1
 43 735 l 1
 43 734 l 1
 43 -199 l 1
43 -199 m 1
 43 734 l 1
 585 734 l 1
 585 -199 l 1
 43 -199 l 1
EndSplineSet
EndChar

StartChar: exclam
Encoding: 33 33 18
Width: 611
Flags: MW
HStem: -199 1 734 1<0 361 0 361 0 361>
VStem: 0 1 117 126 361 1<-199 -199 -199 -199 -199 734>
LayerCount: 2
Fore
SplineSet
117 680 m 1
 136 693 159 700 181 700 c 0
 203 700 225 693 244 680 c 1
 244 423 l 1
 244 163 l 1
 206 136 155 136 117 163 c 1
 117 423 l 1
 117 680 l 1
117 42 m 1
 244 42 l 1
 244 36 l 1
 206 10 155 10 117 36 c 1
 117 42 l 1
0 -199 m 1
 0 -199 l 1
 361 -199 l 1
 362 -199 l 1
 362 -199 l 1
 362 734 l 1
 362 735 l 1
 361 735 l 1
 0 735 l 1
 0 735 l 1
 0 734 l 1
 0 -199 l 1
0 -199 m 1
 0 734 l 1
 361 734 l 1
 361 -199 l 1
 0 -199 l 1
EndSplineSet
EndChar

StartChar: one
Encoding: 49 49 19
Width: 611
Flags: MW
HStem: -199 1 734 1<22 23 23 474>
VStem: 22 1<-199 -199 -199 734> 286 127 474 1<-199 -199 -199 -199 -199 734>
LayerCount: 2
Fore
SplineSet
316 674 m 2
 348 674 l 2
 382 674 410 647 411 613 c 0
 414 506 416 399 416 292 c 0
 416 207 415 122 413 38 c 1
 375 10 324 9 286 35 c 1
 288 121 290 206 290 292 c 0
 290 369 288 446 287 524 c 1
 273 516 259 509 246 502 c 0
 217 486 189 471 162 455 c 1
 122 479 101 526 112 572 c 1
 136 586 160 599 185 613 c 0
 219 631 253 649 287 667 c 0
 295 671 308 674 316 674 c 2
22 -199 m 1
 23 -199 l 1
 474 -199 l 1
 475 -199 l 1
 475 -199 l 1
 475 734 l 1
 475 735 l 1
 474 735 l 1
 23 735 l 1
 22 735 l 1
 22 734 l 1
 22 -199 l 1
23 -199 m 1
 23 734 l 1
 474 734 l 1
 474 -199 l 1
 23 -199 l 1
EndSplineSet
EndChar

StartChar: V
Encoding: 86 86 20
Width: 611
Flags: MW
HStem: -199 21G<86 86 86 587 86 86 86 587 587 587 587 587 587 587> 691 22<123 142>
LayerCount: 2
Fore
SplineSet
142 691 m 0
 148 692 155 691 162 690 c 1
 195 603 228 516 260 430 c 0
 286 364 311 297 337 231 c 1
 362 297 387 364 413 430 c 0
 445 515 477 600 509 686 c 1
 553 697 600 679 625 642 c 1
 593 556 561 471 528 386 c 0
 489 283 449 179 410 76 c 0
 409 73 407 69 405 67 c 2
 405 98 l 1
 365 65 308 65 268 98 c 1
 268 67 l 2
 266 69 264 73 263 76 c 0
 224 179 184 283 145 386 c 0
 113 470 81 553 50 637 c 1
 69 671 104 691 142 691 c 0
86 -199 m 1
 86 -199 l 1
 587 -199 l 1
 587 -199 l 1
 587 -199 l 1
 587 714 l 1
 587 714 l 1
 587 714 l 1
 86 714 l 1
 86 714 l 1
 86 714 l 1
 86 -199 l 1
86 -199 m 1
 86 713 l 1
 587 713 l 1
 587 -199 l 1
 86 -199 l 1
EndSplineSet
EndChar

StartChar: I
Encoding: 73 73 21
Width: 611
Flags: MW
HStem: -199 1 734 1<0 452 0 451 451 451 0 452>
VStem: 0 1 163 126<36 358 358 680> 451 1<-199 734 -199 -199>
LayerCount: 2
Fore
SplineSet
163 680 m 1
 182 693 204 700 226 700 c 0
 248 700 270 693 289 680 c 1
 289 358 l 1
 289 36 l 1
 251 10 200 10 163 36 c 1
 163 358 l 1
 163 680 l 1
0 -199 m 1
 0 -199 l 1
 452 -199 l 1
 452 -199 l 1
 452 -199 l 1
 452 734 l 1
 452 735 l 1
 452 735 l 1
 0 735 l 1
 0 735 l 1
 0 734 l 1
 0 -199 l 1
0 -199 m 1
 0 734 l 1
 451 734 l 1
 451 -199 l 1
 0 -199 l 1
EndSplineSet
EndChar

StartChar: E
Encoding: 69 69 22
Width: 611
Flags: MW
HStem: -200 1<0 0 0 483> 48 135<324 343> 603 132 800 1
VStem: 0 1 66 135<362 431.5 362 442.5> 483 1<-199 800 -199 -199>
LayerCount: 2
Fore
SplineSet
322 741 m 0
 362 741 402 740 442 739 c 1
 472 699 474 644 446 603 c 1
 405 605 364 605 322 605 c 0
 282 605 243 604 203 603 c 1
 202 534 201 466 201 397 c 0
 201 327 202 258 203 188 c 1
 243 185 283 183 324 183 c 0
 365 183 407 185 448 188 c 1
 474 146 472 91 439 52 c 1
 401 49 362 48 324 48 c 0
 258 47 193 51 128 59 c 0
 95 63 68 92 68 125 c 0
 66 216 66 306 66 397 c 0
 66 488 66 578 68 669 c 0
 68 703 97 733 131 735 c 0
 195 739 259 741 322 741 c 0
0 -200 m 1
 0 -200 l 1
 484 -200 l 1
 484 -200 l 1
 484 -200 l 1
 484 800 l 1
 484 800 l 1
 484 800 l 1
 0 800 l 1
 0 800 l 1
 0 800 l 1
 0 -200 l 1
0 -199 m 1
 0 800 l 1
 483 800 l 1
 483 -199 l 1
 0 -199 l 1
EndSplineSet
EndChar

StartChar: four
Encoding: 52 52 23
Width: 611
Flags: MW
HStem: -198 1<127 128 128 677> 236 129<273 361> 749 1
VStem: 127 1<-198 -198 -197 749> 361 128<233 233.5 233.5 236 235.5 236> 677 1
LayerCount: 2
Fore
SplineSet
360 697 m 0
 406 697 448 669 465 626 c 1
 433 582 401 539 369 495 c 1
 488 496 l 1
 488 452 489 408 489 364 c 1
 539 364 590 365 641 366 c 1
 667 327 667 276 639 238 c 1
 589 237 539 236 489 236 c 1
 489 235 489 234 489 233 c 0
 489 169 489 105 488 42 c 1
 450 14 399 14 360 41 c 1
 360 105 361 169 361 233 c 0
 361 234 361 235 361 236 c 1
 297 236 233 237 169 239 c 0
 134 240 106 269 106 303 c 2
 106 335 l 1
 111 349 118 362 128 374 c 1
 120 374 l 1
 164 433 208 492 251 551 c 0
 287 599 322 648 357 696 c 0
 358 696 359 697 360 697 c 0
360 482 m 1
 358 480 356 477 355 475 c 0
 328 438 300 402 273 365 c 1
 302 365 331 365 361 364 c 1
 360 404 360 443 360 482 c 1
127 -198 m 1
 128 -198 l 1
 677 -198 l 1
 677 -198 l 1
 677 -198 l 1
 677 749 l 1
 677 749 l 1
 677 749 l 1
 128 749 l 1
 127 749 l 1
 127 749 l 1
 127 -198 l 1
128 -197 m 1
 128 749 l 1
 677 749 l 1
 677 -197 l 1
 128 -197 l 1
EndSplineSet
EndChar

StartChar: N
Encoding: 78 78 24
Width: 611
Flags: W
HStem: -199 1 734 1<0 542 0 542 0 542 0 542>
VStem: 0 1 61 127 63 129 357 127 542 1
LayerCount: 2
Fore
SplineSet
416 700 m 0xee
 438 700 461 693 481 678 c 1
 483 583 485 487 485 391 c 0
 485 274 483 157 479 40 c 1
 393 19 l 1
 376 22 360 30 345 42 c 1
 345 38 l 1
 294 130 246 224 202 320 c 0
 196 332 190 346 184 358 c 1
 184 347 184 336 184 325 c 0
 184 228 185 132 188 35 c 1
 150 9 99 10 61 38 c 1xf6
 59 134 57 229 57 325 c 0
 57 442 59 559 63 676 c 1
 167 692 l 1
 176 689 184 684 192 678 c 1
 229 574 271 472 316 372 c 0
 330 344 343 315 357 287 c 1
 358 321 358 356 358 391 c 0
 358 488 357 584 354 681 c 1
 373 693 394 700 416 700 c 0xee
0 -199 m 1
 0 -199 l 1
 542 -199 l 1
 542 -199 l 1
 542 -199 l 1
 542 734 l 1
 542 735 l 1
 542 735 l 1
 0 735 l 1
 0 735 l 1
 0 734 l 1
 0 -199 l 1
0 -199 m 1
 0 734 l 1
 542 734 l 1
 542 -199 l 1
 0 -199 l 1
EndSplineSet
EndChar

StartChar: Q
Encoding: 81 81 25
Width: 611
Flags: W
HStem: -194 1<0 0 0 641> 611 135 800 1
VStem: 0 1 0 134 253 135<-71 61 -71 61 201 310> 506 134 641 1
LayerCount: 2
Fore
SplineSet
320 745 m 0xe4
 325 745 330 745 334 745 c 0
 501 737 630 600 640 436 c 0
 641 422 641 410 641 400 c 0
 641 390 641 378 641 365 c 0
 635 216 529 92 388 61 c 1
 388 -71 l 1
 347 -100 293 -100 253 -71 c 1
 253 61 l 1
 112 92 6 216 0 365 c 0
 0 378 0 390 0 400 c 0
 0 410 0 422 1 436 c 0
 11 600 140 737 306 745 c 0
 311 745 316 745 320 745 c 0xe4
320 611 m 0
 318 611 316 611 313 611 c 0
 217 606 141 527 135 427 c 0
 135 419 135 410 135 398 c 0
 134 387 134 378 135 370 c 0
 138 293 186 228 253 201 c 1
 253 310 l 1
 293 339 347 339 388 310 c 1
 388 201 l 1
 455 228 503 293 506 370 c 0xee
 507 378 506 387 506 398 c 0
 506 410 506 419 506 427 c 0
 499 527 424 606 328 611 c 0
 325 611 323 611 320 611 c 0
0 -193 m 1xf5
 0 -194 l 1
 0 -194 l 1
 641 -194 l 1
 641 -194 l 1
 641 -193 l 1
 641 800 l 1
 641 800 l 1
 641 800 l 1
 0 800 l 1
 0 800 l 1
 0 800 l 1
 0 -193 l 1xf5
0 -193 m 1
 0 800 l 1
 641 800 l 1
 641 -193 l 1
 0 -193 l 1
EndSplineSet
EndChar

StartChar: W
Encoding: 87 87 26
Width: 611
Flags: MW
HStem: -199 21G<81 81 82 821 82 82 822 822> 690 28<107.5 129.5>
VStem: 207 6 351 6 546 6 690 6
LayerCount: 2
Fore
SplineSet
124 690 m 0
 135 690 146 688 157 685 c 1
 181 599 206 514 232 429 c 0
 247 375 264 322 280 269 c 1
 289 301 298 333 306 365 c 0
 329 448 353 531 376 614 c 0
 383 639 410 659 436 659 c 2
 467 659 l 2
 493 659 520 639 527 614 c 0
 551 531 574 448 597 365 c 0
 606 333 614 301 623 269 c 1
 639 322 656 375 672 429 c 0
 697 514 722 599 747 685 c 1
 790 699 838 685 865 648 c 1
 841 563 816 478 791 393 c 0
 760 289 728 185 696 81 c 0
 695 77 692 72 690 68 c 2
 690 100 l 1
 650 66 592 66 552 100 c 1
 552 68 l 2
 550 72 547 79 546 83 c 0
 523 166 500 249 477 332 c 0
 469 362 460 392 452 422 c 1
 443 392 435 362 426 332 c 0
 403 249 380 166 358 83 c 0
 356 79 354 72 351 68 c 2
 351 100 l 1
 311 66 253 66 213 100 c 1
 213 68 l 2
 211 72 209 77 207 81 c 0
 175 185 143 289 112 393 c 0
 87 478 62 563 38 648 c 1
 59 675 91 690 124 690 c 0
81 -199 m 1
 81 -200 l 1
 82 -200 l 1
 822 -200 l 1
 822 -200 l 1
 822 -199 l 1
 822 718 l 1
 822 718 l 1
 822 718 l 1
 82 718 l 1
 81 718 l 1
 81 718 l 1
 81 -199 l 1
82 -199 m 1
 82 718 l 1
 821 718 l 1
 821 -199 l 1
 82 -199 l 1
EndSplineSet
EndChar

StartChar: B
Encoding: 66 66 27
Width: 611
Flags: W
HStem: -200 1<0 0 0 580> 58 135 465 271<70 315 70 315 135 315 202 315 261 315> 600 135<202 202 202 261> 800 1
VStem: 0 1 66 2 68 2 68 134<124 194> 509 71<228 261 228 230 261 295 524 532 532 541 540.5 541> 580 1<-200 -200 -199 -199 -199 800>
LayerCount: 2
Fore
SplineSet
68 124 m 2xee80
 70 58 l 1
 135 58 l 1
 261 58 l 2
 355 58 609 6 643 207 c 0
 646 229 645 245 645 261 c 0
 645 278 646 294 643 316 c 0
 609 517 356 465 261 465 c 2
 135 465 l 1
 70 465 l 1xed
 68 399 l 2
 66 352 66 306 66 260 c 0
 66 215 66 169 68 124 c 2xee80
202 194 m 1
 201 219 201 237 201 260 c 0
 201 283 201 308 202 329 c 1xcc80
 261 329 l 2
 433 329 501 336 509 295 c 0
 509 286 509 273 509 261 c 0
 509 250 509 232 509 228 c 0
 501 187 431 194 261 194 c 2
 202 194 l 1
315 736 m 0
 371 735 430 733 485 720 c 0
 522 710 558 696 589 668 c 0
 620 640 641 597 644 551 c 0
 645 543 645 537 645 532 c 0
 645 528 645 522 644 514 c 0
 641 468 620 425 589 397 c 0
 558 369 522 354 485 345 c 0
 411 327 332 329 261 329 c 2
 135 329 l 1
 135 397 l 1
 68 395 l 1xde
 66 441 66 488 66 534 c 0
 66 579 66 624 68 670 c 0
 69 706 99 735 135 735 c 2xed
 261 735 l 2xdd
 279 735 297 736 315 736 c 0
202 600 m 1
 202 578 201 556 201 534 c 0
 201 511 202 488 202 465 c 1
 261 465 l 2
 333 465 406 465 452 477 c 0
 476 482 491 490 498 497 c 0
 505 503 508 507 509 524 c 0
 509 525 509 528 509 532 c 0xdc40
 509 537 509 540 509 541 c 0
 508 557 505 561 498 568 c 0
 491 574 476 582 452 588 c 0
 406 600 333 600 261 600 c 2
 202 600 l 1
0 -200 m 1
 0 -200 l 1
 580 -200 l 1
 581 -200 l 1
 581 -200 l 1
 581 800 l 1
 581 800 l 1xcc20
 580 800 l 1
 0 800 l 1
 0 800 l 1
 0 800 l 1
 0 -200 l 1
0 -199 m 1
 0 800 l 1
 580 800 l 1
 580 -199 l 1
 0 -199 l 1
EndSplineSet
EndChar

StartChar: C
Encoding: 67 67 28
Width: 611
Flags: W
HStem: -200 1<0 0 0 645> 49 135<315 322 315 322 308 322 322 330 315 337> 610 135<321 322 322 323.5> 800 1
VStem: 0 1 0 135<367 396 367 800 367 396 367 800 367 396 367 398 393 396 367 403> 645 1
LayerCount: 2
Fore
SplineSet
322 745 m 0xf2
 327 745 332 745 337 745 c 0
 504 736 634 599 644 433 c 0
 645 420 645 408 645 398 c 0
 645 388 645 376 645 362 c 0
 638 194 504 57 337 49 c 0
 332 49 327 49 322 49 c 0
 318 49 313 49 308 49 c 0
 140 57 7 194 0 362 c 0
 0 376 0 388 0 398 c 0
 0 408 0 420 1 433 c 0
 11 599 141 736 308 745 c 0
 313 745 318 745 322 745 c 0xf2
322 610 m 0
 320 610 317 610 315 609 c 0
 218 605 142 525 136 425 c 0
 136 417 136 407 135 396 c 0
 135 385 135 375 135 367 c 0xf6
 139 268 217 189 315 184 c 0
 317 184 320 184 322 184 c 0
 325 184 327 184 330 184 c 0
 428 189 505 268 509 367 c 0
 510 375 510 385 509 396 c 0
 509 407 509 417 509 425 c 0
 502 525 426 605 330 609 c 0
 327 610 325 610 322 610 c 0
478 621 m 1
 436 569 l 1
 477 535 505 483 509 425 c 0
 509 417 509 407 509 396 c 0
 510 385 510 375 509 367 c 0
 507 299 469 241 414 209 c 1
 448 150 l 1
 481 92 l 1
 576 146 640 246 645 362 c 0
 645 376 645 388 645 398 c 0
 645 408 645 420 644 433 c 0
 638 530 592 617 521 674 c 1
 478 621 l 1
0 -200 m 1xfa
 0 -200 l 1
 645 -200 l 1
 645 -200 l 1
 645 -200 l 1
 645 800 l 1
 645 800 l 1
 645 800 l 1
 0 800 l 1
 0 800 l 1
 0 800 l 1
 0 -200 l 1xfa
0 -199 m 1
 0 800 l 1
 645 800 l 1
 645 -199 l 1
 0 -199 l 1
EndSplineSet
EndChar

StartChar: G
Encoding: 71 71 29
Width: 611
Flags: W
HStem: -200 1<0 0 0 645> 49 135<315 322 315 322 308 322 322 330 315 337> 261 135 610 135<321 322 322 323.5> 800 1
VStem: 0 1 0 135<367 396 367 800 367 396 367 800 367 396 367 398 393 396 367 403> 645 1
LayerCount: 2
Fore
SplineSet
322 745 m 0xf9
 327 745 332 745 337 745 c 0
 504 736 634 599 644 433 c 0
 645 420 645 408 645 398 c 0
 645 388 645 376 645 362 c 0
 638 194 504 57 337 49 c 0
 332 49 327 49 322 49 c 0
 318 49 313 49 308 49 c 0
 140 57 7 194 0 362 c 0
 0 376 0 388 0 398 c 0
 0 408 0 420 1 433 c 0
 11 599 141 736 308 745 c 0
 313 745 318 745 322 745 c 0xf9
322 610 m 0
 320 610 317 610 315 609 c 0
 218 605 142 525 136 425 c 0
 136 417 136 407 135 396 c 0
 135 385 135 375 135 367 c 0xfb
 139 268 217 189 315 184 c 0
 317 184 320 184 322 184 c 0
 325 184 327 184 330 184 c 0
 389 187 440 217 473 261 c 1
 322 261 l 1
 322 397 l 1
 509 397 l 1
 509 408 509 417 509 425 c 0
 502 525 426 605 330 609 c 0
 327 610 325 610 322 610 c 0
573 329 m 1
 640 317 l 1
 643 332 644 347 645 362 c 0
 645 376 645 388 645 398 c 0
 645 408 645 420 644 433 c 0
 638 530 592 617 521 674 c 1
 478 621 l 1
 436 569 l 1
 477 535 505 483 509 425 c 0
 509 417 509 407 509 396 c 0
 510 385 510 375 509 367 c 0
 509 358 508 350 507 341 c 1
 573 329 l 1
0 -200 m 1xfd
 0 -200 l 1
 645 -200 l 1
 645 -200 l 1
 645 -200 l 1
 645 800 l 1
 645 800 l 1
 645 800 l 1
 0 800 l 1
 0 800 l 1
 0 800 l 1
 0 -200 l 1xfd
0 -199 m 1
 0 800 l 1
 645 800 l 1
 645 -199 l 1
 0 -199 l 1
EndSplineSet
EndChar

StartChar: M
Encoding: 77 77 30
Width: 2151
Flags: HMWO
HStem: -199 1 -85 1 734 1<0 662 0 662 0 662>
VStem: 0 1 61 127 481 126<277 343.5> 662 1<-199 -199 -199 -199 -199 734>
LayerCount: 2
Fore
SplineSet
816 700 m 4
 841 700 866 691 887 674 c 5
 887 677 l 5
 914 624 942 572 970 520 c 4
 987 488 1004 458 1021 427 c 5
 1038 458 1055 488 1072 520 c 4
 1100 572 1128 624 1156 677 c 5
 1156 674 l 5
 1194 706 1249 708 1289 680 c 4
 1289 678 1290 676 1290 674 c 4
 1290 673 1289 672 1289 671 c 4
 1295 556 1297 441 1297 325 c 4
 1297 229 1296 134 1292 38 c 5
 1255 10 1204 9 1165 35 c 5
 1169 132 1171 228 1171 325 c 4
 1171 362 1171 398 1170 435 c 5
 1139 378 1108 321 1077 264 c 4
 1067 246 1042 232 1021 232 c 4
 1001 232 976 246 966 264 c 4
 934 321 903 378 872 435 c 5
 872 398 872 362 872 325 c 4
 872 228 874 132 877 35 c 5
 839 9 788 10 751 38 c 5
 747 134 745 229 745 325 c 4
 745 440 748 556 753 671 c 4
 753 672 753 673 753 674 c 4
 753 676 753 678 753 680 c 4
 772 693 794 700 816 700 c 4
126 700 m 0
 151 700 176 691 197 674 c 1
 197 677 l 1
 224 624 252 572 280 520 c 0
 297 488 314 458 331 427 c 1
 348 458 365 488 382 520 c 0
 410 572 438 624 466 677 c 1
 466 674 l 1
 504 706 559 708 599 680 c 0
 599 678 600 676 600 674 c 0
 600 673 599 672 599 671 c 0
 605 556 607 441 607 325 c 0
 607 229 606 134 602 38 c 1
 565 10 514 9 475 35 c 1
 479 132 481 228 481 325 c 0
 481 362 481 398 480 435 c 1
 449 378 418 321 387 264 c 0
 377 246 352 232 331 232 c 0
 311 232 286 246 276 264 c 0
 244 321 213 378 182 435 c 1
 182 398 182 362 182 325 c 0
 182 228 184 132 187 35 c 1
 149 9 98 10 61 38 c 1
 57 134 55 229 55 325 c 0
 55 440 58 556 63 671 c 0
 63 672 63 673 63 674 c 0
 63 676 63 678 63 680 c 0
 82 693 104 700 126 700 c 0
EndSplineSet
EndChar
